<svg width="165" height="50" viewBox="0 0 165 50" fill="none" xmlns="http://www.w3.org/2000/svg">
<path d="M86.4147 32.1556H106.188L108.562 22.6826H88.7883L86.4147 32.1556Z" fill="white"/>
<path d="M161.482 48.7903H147.094L144.36 45.1737L144.324 45.1976C140.602 46.7991 136.797 47.6095 132.996 47.6095C126.011 47.6095 119.901 44.7099 116.6 39.42C111.6 31.4146 113.78 18.9106 123.229 10.8072C125.794 8.61757 128.72 6.92997 131.77 5.87581C136.758 4.14995 141.881 4.90531 144.673 8.23511C145.017 8.65582 145.333 9.10521 145.6 9.58568C145.6 9.58568 145.926 10.1737 146.155 10.6924C145.053 10.2502 143.8 10.0064 142.419 10.0064C135.458 10.0064 128.727 15.9441 126.755 23.8132C124.78 31.6895 128.536 37.6272 135.496 37.6272C136.457 37.6272 137.449 37.5125 138.389 37.2926C138.393 37.2687 134.005 31.4529 134.005 31.4529H142.034C146.11 31.4529 149.614 33.064 151.78 35.9324L161.48 48.7927L161.482 48.7903Z" fill="white"/>
<path d="M163.213 23.8084C162.108 28.2115 159.809 32.4951 156.601 36.2121L154.653 33.6329C153.164 31.656 151.182 30.1836 148.844 29.2752C149.894 27.5494 150.685 25.704 151.16 23.8108L151.168 23.7797C152.903 16.7879 151.588 10.592 148.127 6.69808C148.127 6.69808 148.122 6.69091 148.113 6.69091C147.957 6.51642 147.797 6.33953 147.63 6.17937C147.527 6.07181 147.403 5.95707 147.259 5.82799C145.861 4.52284 144.173 3.55234 142.252 3.00495C139.923 2.24242 136.897 1.85996 133.151 2.58424C136.876 0.934879 140.887 0.0121918 144.924 0.0121918C158.518 0.0121918 166.552 10.4677 163.208 23.8108L163.213 23.8084Z" fill="#3F98D3"/>
<path d="M11.9901 0.016983H23.4162L18.8458 18.1456H34.486L39.0564 0.016983H50.4203L38.4301 47.5736H27.0663L31.9905 28.0394H16.3502L11.426 47.5736H0L11.9901 0.016983Z" fill="white"/>
<path d="M45.6945 46.988L47.5542 40.4766C48.1685 40.5674 51.2712 40.6845 52.1031 40.6845C55.55 40.6845 57.6583 39.4152 58.9443 37.6009L59.7857 36.2862L52.1819 11.2542H63.608L65.6924 23.2706C66.1585 26.0602 66.6222 28.8522 66.7298 29.2561H67.0501C68.4843 26.99 69.8994 25.0515 72.2038 20.9448L78.163 11.2518H89.0153L69.9855 37.1014C64.8055 43.7227 60.0248 46.988 51.4075 46.988H45.6945Z" fill="white"/>
</svg>
